<?xml version="1.0" encoding="UTF-8"?>
<svg version="1.1" viewBox="0 0 2000 2000" width="1280" height="1280" xmlns="http://www.w3.org/2000/svg">
<path transform="translate(1263,387)" d="m0 0h205l1 1v519h-144l-1-332-17 37-18 41-56 126-19 43-13 29-15 34-9 20-2 2h-136l2-6 19-44 12-28 16-37 13-30 21-49 16-37 12-28 44-102 12-28 26-60 30-70z" fill="#BCFD0A"/>
<path transform="translate(479,387)" d="m0 0h201l7 14 12 28 19 43 13 30 18 41 11 25 18 41 13 30 15 34 13 30 19 43 13 30 16 36 13 30 18 41 10 22v2h-142l-5-8-18-40-18-41-19-42-16-36-13-29-60-135-2-1 1 11-1 321h-136l-1-2v-497z" fill="#BCFD0A"/>
<path transform="translate(1325,1086)" d="m0 0h143l1 1v360l-2 1h-141l-1-1z" fill="#BCFD0A"/>
<path transform="translate(479,1086)" d="m0 0h136v361l-10 1h-126l-1-5v-326z" fill="#BCFD0A"/>
<path transform="translate(845,1085)" d="m0 0 251 1-2 6-44 99-7 16-2 1h-140l-3-2-8-18-18-40-18-41-9-19z" fill="#BCFD0A"/>
<path transform="translate(578,965)" d="m0 0 28 1v1l-5 1-2 28h21v-28l-7-1v-1h22l1 2-1 57 6 1v1l-20 1-7-1v-1l5-1 1-27h-21l1 22 1 5 4 2-17 1-10-1 3-2 2-1 1-57h-5z" fill="#BCFD0A"/>
<path transform="translate(1314,965)" d="m0 0 20 1h10l9 2 6 4 4 5 1 8-3 7-4 4-4 2 1 5 8 14 4 6 3 2v2l-8 1-7-2-6-7-10-18-1-4 7-1 3-5 1-5v-7l-2-7-3-3-8-1v57l3 1v1h-24l3-2 2-1v-55l-5-2z" fill="#BCFD0A"/>
<path transform="translate(1145,965)" d="m0 0 20 1h9l10 3 6 4 3 7-1 8-4 4-4 3 9 7 3 6-1 9-4 6-7 4-30 1-9-1 2-2 3-1v-56l-6-1zm21 2-1 1v57l1 1h8l6-4v-20l-4-4-7-2 7-3 2-7v-7l-3-9-2-2z" fill="#BCFD0A"/>
<path transform="translate(835,965)" d="m0 0h10l8 3 5 4 1 4-3 5-4 3h-3l-4-12-3-4h-7l-3 3-2 5 1 6 7 6 16 8 5 6 2 5-1 10-7 8-5 3-9 2-9-1-7-3-5-5-1-7 7-6h3l1 10 4 6 3 3h7l6-5 1-2-1-9-1-3-5-2-17-9-4-5-2-5v-7l3-7 8-6z" fill="#BCFD0A"/>
<path transform="translate(1062,965)" d="m0 0 16 1 7-1 22 1 1 1v14l-2 1-4-11-5-3h-14v57h19l5-2 2-9 2-1v14l-42 1-7-1 4-2 1-1v-55l-5-2z" fill="#BCFD0A"/>
<path transform="translate(1582,965)" d="m0 0h33l9 1 2 10v6l-3-4-6-9-2-1-10-1v55l1 2 4 2v1h-26l2-2 4-2 1-56-10 1-6 5-5 9-1-3 2-12 1-1z" fill="#BCFD0A"/>
<path transform="translate(1253,965)" d="m0 0h12l8 3 6 5v5l-4 5-5 1-4-9-4-7-5-1-5 2-4 5-3 13v22l4 12 6 5 7 1 9-4 6-8h2l1 3-6 8-8 3-8 1-13-3-7-5-6-9-3-11v-9l2-9 5-9 7-6z" fill="#BCFD0A"/>
<path transform="translate(1430,966)" d="m0 0h5l4 6 15 43 6 12-2 1h-14l-9-1 3-2 3-1-1-7-3-9-21-1-4 8-3 9 9 1v2h-18l1-2 6-3 7-20 8-22 3-3-3 10-6 18h19l-3-12-5-15-1-2v-6z" fill="#BCFD0A"/>
<path transform="translate(1493,965)" d="m0 0h31l15 1 1 5-1 10-2 1-2-9-5-4-4-1h-12v56l8 2v1h-29l5-4v-56h-5z" fill="#BCFD0A"/>
<path transform="translate(515,966)" d="m0 0h5l4 6 16 46 3 6 2 1v2l-3 1h-12l-10-1 4-2h3l-5-17-5-1h-16l-4 9-3 8 9 1v2h-19l3-2 4-2 14-37 3-7 1 3-7 20v2l18 1-5-19-4-9-1-2 3-8z" fill="#BCFD0A"/>
<path transform="translate(704,966)" d="m0 0h5l4 6 16 46 5 9-2 1-23-1 4-2h3l-5-17-10-30-1-1-10 28h19v1l-15 1-5-1-3 9-2 9 8 1 1 2h-19l4-3 3-3 16-43 4-10z" fill="#BCFD0A"/>
<path transform="translate(964,965)" d="m0 0 3 1-7 3 2 11 9 32 2 5 1 9-4 2h-6l-4-4-9-29-7-23-2-6h18z" fill="#BCFD0A"/>
<path transform="translate(450,965)" d="m0 0 4 1-6 2-1 6v50l4 3-18 1-5-1 3-2v-50l1-8z" fill="#BCFD0A"/>
<path transform="translate(378,965)" d="m0 0 21 1 3 3 15 40 2 3-1 7-2 8-3 1-4-2-17-45-6-13-8-2z" fill="#BCFD0A"/>
<path transform="translate(987,967)" d="m0 0h5l3 7 12 36 3 8v8l-1 1h-10l-4-9-10-31v-3h-2l-1 8-4 14h-1l1-8 7-30z" fill="#BCFD0A"/>
<path transform="translate(772,967)" d="m0 0h6l5 4v11l-4 6h-2v2l-4 2-4-1 6-4v-6l-7-6 1-5z" fill="#BCFD0A"/>
<path transform="translate(1011,965)" d="m0 0h18l-4 5-5 15-7 28-1-4 6-28 2-13-8-1z" fill="#BCFD0A"/>
<path transform="translate(388,983)" d="m0 0h2l1 28v14l5 1v1h-17l-1-2 10-1z" fill="#BDFD0E"/>
<path transform="translate(500 1e3)" d="m0 0 2 2 16 1v1l-17 1-2 3h-2l1-5z" fill="#C0FD1C"/>
<path transform="translate(1515,996)" d="m0 0h16v1l-15 1z" fill="#BCFD0A"/>
<path transform="translate(638,965)" d="m0 0 4 1-1 1h-5z" fill="#BCFD0A"/>
<path transform="translate(976,1006)" d="m0 0h1v5h-1z" fill="#BCFD0A"/>
<path transform="translate(1083,996)" d="m0 0h5v1h-5z" fill="#BCFD0A"/>
<path transform="translate(422 1e3)" d="m0 0" fill="#BCFD0A"/>
<path transform="translate(423,997)" d="m0 0" fill="#BCFD0A"/>
<path transform="translate(1092,996)" d="m0 0 3 1z" fill="#BCFD0A"/>
<path transform="translate(424,993)" d="m0 0" fill="#BCFD0A"/>
<path transform="translate(425,988)" d="m0 0" fill="#BCFD0A"/>
<path transform="translate(426,984)" d="m0 0" fill="#BCFD0A"/>
<path transform="translate(420,1007)" d="m0 0" fill="#BCFD0A"/>
<path transform="translate(421 1e3)" d="m0 0" fill="#BCFD0A"/>
<path transform="translate(509,977)" d="m0 0" fill="#BCFD0A"/>
<path transform="translate(975,1012)" d="m0 0" fill="#BCFD0A"/>
<path transform="translate(1089,996)" d="m0 0" fill="#BCFD0A"/>
<path transform="translate(388,981)" d="m0 0" fill="#BCFD0A"/>
</svg>
